<mxfile host="Electron" modified="2023-07-07T16:12:35.419Z" agent="Mozilla/5.0 (Macintosh; Intel Mac OS X 10_15_7) AppleWebKit/537.36 (KHTML, like Gecko) draw.io/21.6.1 Chrome/112.0.5615.204 Electron/24.6.1 Safari/537.36" etag="EvNvcv32d7-CQYnskKVb" version="21.6.1" type="device">
  <diagram name="Pagina-1" id="lp57-fYM9kQ8f8W4ErKZ">
    <mxGraphModel dx="3769" dy="2047" grid="1" gridSize="10" guides="1" tooltips="1" connect="1" arrows="1" fold="1" page="1" pageScale="1" pageWidth="1169" pageHeight="827" math="0" shadow="0">
      <root>
        <mxCell id="0" />
        <mxCell id="1" parent="0" />
        <mxCell id="-jynn4VAvdDgv4GhpCzi-2" value="Corso di Laurea" style="shape=table;startSize=30;container=1;collapsible=0;childLayout=tableLayout;fixedRows=1;rowLines=0;fontStyle=0;strokeColor=default;fontSize=16;" vertex="1" parent="1">
          <mxGeometry x="481" y="-175" width="534" height="235" as="geometry" />
        </mxCell>
        <mxCell id="-jynn4VAvdDgv4GhpCzi-3" value="" style="shape=tableRow;horizontal=0;startSize=0;swimlaneHead=0;swimlaneBody=0;top=0;left=0;bottom=0;right=0;collapsible=0;dropTarget=0;fillColor=none;points=[[0,0.5],[1,0.5]];portConstraint=eastwest;strokeColor=inherit;fontSize=16;" vertex="1" parent="-jynn4VAvdDgv4GhpCzi-2">
          <mxGeometry y="30" width="534" height="40" as="geometry" />
        </mxCell>
        <mxCell id="-jynn4VAvdDgv4GhpCzi-5" value="id" style="shape=partialRectangle;html=1;whiteSpace=wrap;connectable=0;fillColor=none;top=0;left=0;bottom=0;right=0;align=left;spacingLeft=6;overflow=hidden;strokeColor=inherit;fontSize=16;" vertex="1" parent="-jynn4VAvdDgv4GhpCzi-3">
          <mxGeometry width="178" height="40" as="geometry">
            <mxRectangle width="178" height="40" as="alternateBounds" />
          </mxGeometry>
        </mxCell>
        <mxCell id="yXeaVKiFBN0iXHVZ5jo_-84" value="SMALLINT UNSIGNED" style="shape=partialRectangle;html=1;whiteSpace=wrap;connectable=0;fillColor=none;top=0;left=0;bottom=0;right=0;align=left;spacingLeft=6;overflow=hidden;strokeColor=inherit;fontSize=16;" vertex="1" parent="-jynn4VAvdDgv4GhpCzi-3">
          <mxGeometry x="178" width="199" height="40" as="geometry">
            <mxRectangle width="199" height="40" as="alternateBounds" />
          </mxGeometry>
        </mxCell>
        <mxCell id="yXeaVKiFBN0iXHVZ5jo_-79" value="PRIMARY_KEY" style="shape=partialRectangle;html=1;whiteSpace=wrap;connectable=0;fillColor=none;top=0;left=0;bottom=0;right=0;align=left;spacingLeft=6;overflow=hidden;strokeColor=inherit;fontSize=16;" vertex="1" parent="-jynn4VAvdDgv4GhpCzi-3">
          <mxGeometry x="377" width="157" height="40" as="geometry">
            <mxRectangle width="157" height="40" as="alternateBounds" />
          </mxGeometry>
        </mxCell>
        <mxCell id="yXeaVKiFBN0iXHVZ5jo_-90" style="shape=tableRow;horizontal=0;startSize=0;swimlaneHead=0;swimlaneBody=0;top=0;left=0;bottom=0;right=0;collapsible=0;dropTarget=0;fillColor=none;points=[[0,0.5],[1,0.5]];portConstraint=eastwest;strokeColor=inherit;fontSize=16;" vertex="1" parent="-jynn4VAvdDgv4GhpCzi-2">
          <mxGeometry y="70" width="534" height="35" as="geometry" />
        </mxCell>
        <mxCell id="yXeaVKiFBN0iXHVZ5jo_-92" value="id_dipartimento" style="shape=partialRectangle;html=1;whiteSpace=wrap;connectable=0;fillColor=none;top=0;left=0;bottom=0;right=0;align=left;spacingLeft=6;overflow=hidden;strokeColor=inherit;fontSize=16;" vertex="1" parent="yXeaVKiFBN0iXHVZ5jo_-90">
          <mxGeometry width="178" height="35" as="geometry">
            <mxRectangle width="178" height="35" as="alternateBounds" />
          </mxGeometry>
        </mxCell>
        <mxCell id="yXeaVKiFBN0iXHVZ5jo_-93" value="FOREIGN_KEY" style="shape=partialRectangle;html=1;whiteSpace=wrap;connectable=0;fillColor=none;top=0;left=0;bottom=0;right=0;align=left;spacingLeft=6;overflow=hidden;strokeColor=inherit;fontSize=16;" vertex="1" parent="yXeaVKiFBN0iXHVZ5jo_-90">
          <mxGeometry x="178" width="199" height="35" as="geometry">
            <mxRectangle width="199" height="35" as="alternateBounds" />
          </mxGeometry>
        </mxCell>
        <mxCell id="yXeaVKiFBN0iXHVZ5jo_-94" value="-" style="shape=partialRectangle;html=1;whiteSpace=wrap;connectable=0;fillColor=none;top=0;left=0;bottom=0;right=0;align=left;spacingLeft=6;overflow=hidden;strokeColor=inherit;fontSize=16;" vertex="1" parent="yXeaVKiFBN0iXHVZ5jo_-90">
          <mxGeometry x="377" width="157" height="35" as="geometry">
            <mxRectangle width="157" height="35" as="alternateBounds" />
          </mxGeometry>
        </mxCell>
        <mxCell id="-jynn4VAvdDgv4GhpCzi-6" value="" style="shape=tableRow;horizontal=0;startSize=0;swimlaneHead=0;swimlaneBody=0;top=0;left=0;bottom=0;right=0;collapsible=0;dropTarget=0;fillColor=none;points=[[0,0.5],[1,0.5]];portConstraint=eastwest;strokeColor=inherit;fontSize=16;" vertex="1" parent="-jynn4VAvdDgv4GhpCzi-2">
          <mxGeometry y="105" width="534" height="40" as="geometry" />
        </mxCell>
        <mxCell id="-jynn4VAvdDgv4GhpCzi-8" value="nome_corso" style="shape=partialRectangle;html=1;whiteSpace=wrap;connectable=0;fillColor=none;top=0;left=0;bottom=0;right=0;align=left;spacingLeft=6;overflow=hidden;strokeColor=inherit;fontSize=16;" vertex="1" parent="-jynn4VAvdDgv4GhpCzi-6">
          <mxGeometry width="178" height="40" as="geometry">
            <mxRectangle width="178" height="40" as="alternateBounds" />
          </mxGeometry>
        </mxCell>
        <mxCell id="yXeaVKiFBN0iXHVZ5jo_-85" value="VARCHAR(250)" style="shape=partialRectangle;html=1;whiteSpace=wrap;connectable=0;fillColor=none;top=0;left=0;bottom=0;right=0;align=left;spacingLeft=6;overflow=hidden;strokeColor=inherit;fontSize=16;" vertex="1" parent="-jynn4VAvdDgv4GhpCzi-6">
          <mxGeometry x="178" width="199" height="40" as="geometry">
            <mxRectangle width="199" height="40" as="alternateBounds" />
          </mxGeometry>
        </mxCell>
        <mxCell id="yXeaVKiFBN0iXHVZ5jo_-80" value="NOT_NULL" style="shape=partialRectangle;html=1;whiteSpace=wrap;connectable=0;fillColor=none;top=0;left=0;bottom=0;right=0;align=left;spacingLeft=6;overflow=hidden;strokeColor=inherit;fontSize=16;" vertex="1" parent="-jynn4VAvdDgv4GhpCzi-6">
          <mxGeometry x="377" width="157" height="40" as="geometry">
            <mxRectangle width="157" height="40" as="alternateBounds" />
          </mxGeometry>
        </mxCell>
        <mxCell id="-jynn4VAvdDgv4GhpCzi-9" value="" style="shape=tableRow;horizontal=0;startSize=0;swimlaneHead=0;swimlaneBody=0;top=0;left=0;bottom=0;right=0;collapsible=0;dropTarget=0;fillColor=none;points=[[0,0.5],[1,0.5]];portConstraint=eastwest;strokeColor=inherit;fontSize=16;" vertex="1" parent="-jynn4VAvdDgv4GhpCzi-2">
          <mxGeometry y="145" width="534" height="30" as="geometry" />
        </mxCell>
        <mxCell id="-jynn4VAvdDgv4GhpCzi-11" value="numero_chiuso" style="shape=partialRectangle;html=1;whiteSpace=wrap;connectable=0;fillColor=none;top=0;left=0;bottom=0;right=0;align=left;spacingLeft=6;overflow=hidden;strokeColor=inherit;fontSize=16;" vertex="1" parent="-jynn4VAvdDgv4GhpCzi-9">
          <mxGeometry width="178" height="30" as="geometry">
            <mxRectangle width="178" height="30" as="alternateBounds" />
          </mxGeometry>
        </mxCell>
        <mxCell id="yXeaVKiFBN0iXHVZ5jo_-86" value="BOOLEAN" style="shape=partialRectangle;html=1;whiteSpace=wrap;connectable=0;fillColor=none;top=0;left=0;bottom=0;right=0;align=left;spacingLeft=6;overflow=hidden;strokeColor=inherit;fontSize=16;" vertex="1" parent="-jynn4VAvdDgv4GhpCzi-9">
          <mxGeometry x="178" width="199" height="30" as="geometry">
            <mxRectangle width="199" height="30" as="alternateBounds" />
          </mxGeometry>
        </mxCell>
        <mxCell id="yXeaVKiFBN0iXHVZ5jo_-81" value="NOT_NULL" style="shape=partialRectangle;html=1;whiteSpace=wrap;connectable=0;fillColor=none;top=0;left=0;bottom=0;right=0;align=left;spacingLeft=6;overflow=hidden;strokeColor=inherit;fontSize=16;" vertex="1" parent="-jynn4VAvdDgv4GhpCzi-9">
          <mxGeometry x="377" width="157" height="30" as="geometry">
            <mxRectangle width="157" height="30" as="alternateBounds" />
          </mxGeometry>
        </mxCell>
        <mxCell id="-jynn4VAvdDgv4GhpCzi-185" style="shape=tableRow;horizontal=0;startSize=0;swimlaneHead=0;swimlaneBody=0;top=0;left=0;bottom=0;right=0;collapsible=0;dropTarget=0;fillColor=none;points=[[0,0.5],[1,0.5]];portConstraint=eastwest;strokeColor=inherit;fontSize=16;" vertex="1" parent="-jynn4VAvdDgv4GhpCzi-2">
          <mxGeometry y="175" width="534" height="30" as="geometry" />
        </mxCell>
        <mxCell id="-jynn4VAvdDgv4GhpCzi-187" value="durata" style="shape=partialRectangle;html=1;whiteSpace=wrap;connectable=0;fillColor=none;top=0;left=0;bottom=0;right=0;align=left;spacingLeft=6;overflow=hidden;strokeColor=inherit;fontSize=16;" vertex="1" parent="-jynn4VAvdDgv4GhpCzi-185">
          <mxGeometry width="178" height="30" as="geometry">
            <mxRectangle width="178" height="30" as="alternateBounds" />
          </mxGeometry>
        </mxCell>
        <mxCell id="yXeaVKiFBN0iXHVZ5jo_-87" value="TINYINT UNSIGNED" style="shape=partialRectangle;html=1;whiteSpace=wrap;connectable=0;fillColor=none;top=0;left=0;bottom=0;right=0;align=left;spacingLeft=6;overflow=hidden;strokeColor=inherit;fontSize=16;" vertex="1" parent="-jynn4VAvdDgv4GhpCzi-185">
          <mxGeometry x="178" width="199" height="30" as="geometry">
            <mxRectangle width="199" height="30" as="alternateBounds" />
          </mxGeometry>
        </mxCell>
        <mxCell id="yXeaVKiFBN0iXHVZ5jo_-82" value="NOT_NULL" style="shape=partialRectangle;html=1;whiteSpace=wrap;connectable=0;fillColor=none;top=0;left=0;bottom=0;right=0;align=left;spacingLeft=6;overflow=hidden;strokeColor=inherit;fontSize=16;" vertex="1" parent="-jynn4VAvdDgv4GhpCzi-185">
          <mxGeometry x="377" width="157" height="30" as="geometry">
            <mxRectangle width="157" height="30" as="alternateBounds" />
          </mxGeometry>
        </mxCell>
        <mxCell id="-jynn4VAvdDgv4GhpCzi-182" style="shape=tableRow;horizontal=0;startSize=0;swimlaneHead=0;swimlaneBody=0;top=0;left=0;bottom=0;right=0;collapsible=0;dropTarget=0;fillColor=none;points=[[0,0.5],[1,0.5]];portConstraint=eastwest;strokeColor=inherit;fontSize=16;" vertex="1" parent="-jynn4VAvdDgv4GhpCzi-2">
          <mxGeometry y="205" width="534" height="30" as="geometry" />
        </mxCell>
        <mxCell id="-jynn4VAvdDgv4GhpCzi-184" value="crediti" style="shape=partialRectangle;html=1;whiteSpace=wrap;connectable=0;fillColor=none;top=0;left=0;bottom=0;right=0;align=left;spacingLeft=6;overflow=hidden;strokeColor=inherit;fontSize=16;" vertex="1" parent="-jynn4VAvdDgv4GhpCzi-182">
          <mxGeometry width="178" height="30" as="geometry">
            <mxRectangle width="178" height="30" as="alternateBounds" />
          </mxGeometry>
        </mxCell>
        <mxCell id="yXeaVKiFBN0iXHVZ5jo_-88" value="TINYINY UNSIGNED" style="shape=partialRectangle;html=1;whiteSpace=wrap;connectable=0;fillColor=none;top=0;left=0;bottom=0;right=0;align=left;spacingLeft=6;overflow=hidden;strokeColor=inherit;fontSize=16;" vertex="1" parent="-jynn4VAvdDgv4GhpCzi-182">
          <mxGeometry x="178" width="199" height="30" as="geometry">
            <mxRectangle width="199" height="30" as="alternateBounds" />
          </mxGeometry>
        </mxCell>
        <mxCell id="yXeaVKiFBN0iXHVZ5jo_-83" value="NOT_NULL" style="shape=partialRectangle;html=1;whiteSpace=wrap;connectable=0;fillColor=none;top=0;left=0;bottom=0;right=0;align=left;spacingLeft=6;overflow=hidden;strokeColor=inherit;fontSize=16;" vertex="1" parent="-jynn4VAvdDgv4GhpCzi-182">
          <mxGeometry x="377" width="157" height="30" as="geometry">
            <mxRectangle width="157" height="30" as="alternateBounds" />
          </mxGeometry>
        </mxCell>
        <mxCell id="-jynn4VAvdDgv4GhpCzi-30" value="Dipartimento" style="shape=table;startSize=30;container=1;collapsible=0;childLayout=tableLayout;fixedRows=1;rowLines=0;fontStyle=0;strokeColor=default;fontSize=16;" vertex="1" parent="1">
          <mxGeometry x="-200" y="280" width="510" height="120" as="geometry" />
        </mxCell>
        <mxCell id="-jynn4VAvdDgv4GhpCzi-31" value="" style="shape=tableRow;horizontal=0;startSize=0;swimlaneHead=0;swimlaneBody=0;top=0;left=0;bottom=0;right=0;collapsible=0;dropTarget=0;fillColor=none;points=[[0,0.5],[1,0.5]];portConstraint=eastwest;strokeColor=inherit;fontSize=16;" vertex="1" parent="-jynn4VAvdDgv4GhpCzi-30">
          <mxGeometry y="30" width="510" height="30" as="geometry" />
        </mxCell>
        <mxCell id="-jynn4VAvdDgv4GhpCzi-33" value="id" style="shape=partialRectangle;html=1;whiteSpace=wrap;connectable=0;fillColor=none;top=0;left=0;bottom=0;right=0;align=left;spacingLeft=6;overflow=hidden;strokeColor=inherit;fontSize=16;" vertex="1" parent="-jynn4VAvdDgv4GhpCzi-31">
          <mxGeometry width="170" height="30" as="geometry">
            <mxRectangle width="170" height="30" as="alternateBounds" />
          </mxGeometry>
        </mxCell>
        <mxCell id="yXeaVKiFBN0iXHVZ5jo_-72" value="TINYINT UNSIGNED" style="shape=partialRectangle;html=1;whiteSpace=wrap;connectable=0;fillColor=none;top=0;left=0;bottom=0;right=0;align=left;spacingLeft=6;overflow=hidden;strokeColor=inherit;fontSize=16;" vertex="1" parent="-jynn4VAvdDgv4GhpCzi-31">
          <mxGeometry x="170" width="170" height="30" as="geometry">
            <mxRectangle width="170" height="30" as="alternateBounds" />
          </mxGeometry>
        </mxCell>
        <mxCell id="yXeaVKiFBN0iXHVZ5jo_-76" value="PRIMARY_KEY" style="shape=partialRectangle;html=1;whiteSpace=wrap;connectable=0;fillColor=none;top=0;left=0;bottom=0;right=0;align=left;spacingLeft=6;overflow=hidden;strokeColor=inherit;fontSize=16;" vertex="1" parent="-jynn4VAvdDgv4GhpCzi-31">
          <mxGeometry x="340" width="170" height="30" as="geometry">
            <mxRectangle width="170" height="30" as="alternateBounds" />
          </mxGeometry>
        </mxCell>
        <mxCell id="-jynn4VAvdDgv4GhpCzi-34" value="" style="shape=tableRow;horizontal=0;startSize=0;swimlaneHead=0;swimlaneBody=0;top=0;left=0;bottom=0;right=0;collapsible=0;dropTarget=0;fillColor=none;points=[[0,0.5],[1,0.5]];portConstraint=eastwest;strokeColor=inherit;fontSize=16;" vertex="1" parent="-jynn4VAvdDgv4GhpCzi-30">
          <mxGeometry y="60" width="510" height="30" as="geometry" />
        </mxCell>
        <mxCell id="-jynn4VAvdDgv4GhpCzi-36" value="nome_dipartimento" style="shape=partialRectangle;html=1;whiteSpace=wrap;connectable=0;fillColor=none;top=0;left=0;bottom=0;right=0;align=left;spacingLeft=6;overflow=hidden;strokeColor=inherit;fontSize=16;" vertex="1" parent="-jynn4VAvdDgv4GhpCzi-34">
          <mxGeometry width="170" height="30" as="geometry">
            <mxRectangle width="170" height="30" as="alternateBounds" />
          </mxGeometry>
        </mxCell>
        <mxCell id="yXeaVKiFBN0iXHVZ5jo_-73" value="VARCHAR(150)" style="shape=partialRectangle;html=1;whiteSpace=wrap;connectable=0;fillColor=none;top=0;left=0;bottom=0;right=0;align=left;spacingLeft=6;overflow=hidden;strokeColor=inherit;fontSize=16;" vertex="1" parent="-jynn4VAvdDgv4GhpCzi-34">
          <mxGeometry x="170" width="170" height="30" as="geometry">
            <mxRectangle width="170" height="30" as="alternateBounds" />
          </mxGeometry>
        </mxCell>
        <mxCell id="yXeaVKiFBN0iXHVZ5jo_-77" value="NOT_NULL" style="shape=partialRectangle;html=1;whiteSpace=wrap;connectable=0;fillColor=none;top=0;left=0;bottom=0;right=0;align=left;spacingLeft=6;overflow=hidden;strokeColor=inherit;fontSize=16;" vertex="1" parent="-jynn4VAvdDgv4GhpCzi-34">
          <mxGeometry x="340" width="170" height="30" as="geometry">
            <mxRectangle width="170" height="30" as="alternateBounds" />
          </mxGeometry>
        </mxCell>
        <mxCell id="-jynn4VAvdDgv4GhpCzi-37" value="" style="shape=tableRow;horizontal=0;startSize=0;swimlaneHead=0;swimlaneBody=0;top=0;left=0;bottom=0;right=0;collapsible=0;dropTarget=0;fillColor=none;points=[[0,0.5],[1,0.5]];portConstraint=eastwest;strokeColor=inherit;fontSize=16;" vertex="1" parent="-jynn4VAvdDgv4GhpCzi-30">
          <mxGeometry y="90" width="510" height="30" as="geometry" />
        </mxCell>
        <mxCell id="-jynn4VAvdDgv4GhpCzi-39" value="sede" style="shape=partialRectangle;html=1;whiteSpace=wrap;connectable=0;fillColor=none;top=0;left=0;bottom=0;right=0;align=left;spacingLeft=6;overflow=hidden;strokeColor=inherit;fontSize=16;" vertex="1" parent="-jynn4VAvdDgv4GhpCzi-37">
          <mxGeometry width="170" height="30" as="geometry">
            <mxRectangle width="170" height="30" as="alternateBounds" />
          </mxGeometry>
        </mxCell>
        <mxCell id="yXeaVKiFBN0iXHVZ5jo_-74" value="VARCHAR(200)" style="shape=partialRectangle;html=1;whiteSpace=wrap;connectable=0;fillColor=none;top=0;left=0;bottom=0;right=0;align=left;spacingLeft=6;overflow=hidden;strokeColor=inherit;fontSize=16;" vertex="1" parent="-jynn4VAvdDgv4GhpCzi-37">
          <mxGeometry x="170" width="170" height="30" as="geometry">
            <mxRectangle width="170" height="30" as="alternateBounds" />
          </mxGeometry>
        </mxCell>
        <mxCell id="yXeaVKiFBN0iXHVZ5jo_-78" value="NOT_NULL" style="shape=partialRectangle;html=1;whiteSpace=wrap;connectable=0;fillColor=none;top=0;left=0;bottom=0;right=0;align=left;spacingLeft=6;overflow=hidden;strokeColor=inherit;fontSize=16;" vertex="1" parent="-jynn4VAvdDgv4GhpCzi-37">
          <mxGeometry x="340" width="170" height="30" as="geometry">
            <mxRectangle width="170" height="30" as="alternateBounds" />
          </mxGeometry>
        </mxCell>
        <mxCell id="-jynn4VAvdDgv4GhpCzi-43" value="Corso (Materia)" style="shape=table;startSize=30;container=1;collapsible=0;childLayout=tableLayout;fixedRows=1;rowLines=0;fontStyle=0;strokeColor=default;fontSize=16;" vertex="1" parent="1">
          <mxGeometry x="1190" y="-10" width="540" height="140" as="geometry" />
        </mxCell>
        <mxCell id="-jynn4VAvdDgv4GhpCzi-44" value="" style="shape=tableRow;horizontal=0;startSize=0;swimlaneHead=0;swimlaneBody=0;top=0;left=0;bottom=0;right=0;collapsible=0;dropTarget=0;fillColor=none;points=[[0,0.5],[1,0.5]];portConstraint=eastwest;strokeColor=inherit;fontSize=16;" vertex="1" parent="-jynn4VAvdDgv4GhpCzi-43">
          <mxGeometry y="30" width="540" height="30" as="geometry" />
        </mxCell>
        <mxCell id="-jynn4VAvdDgv4GhpCzi-46" value="id" style="shape=partialRectangle;html=1;whiteSpace=wrap;connectable=0;fillColor=none;top=0;left=0;bottom=0;right=0;align=left;spacingLeft=6;overflow=hidden;strokeColor=inherit;fontSize=16;" vertex="1" parent="-jynn4VAvdDgv4GhpCzi-44">
          <mxGeometry width="180" height="30" as="geometry">
            <mxRectangle width="180" height="30" as="alternateBounds" />
          </mxGeometry>
        </mxCell>
        <mxCell id="yXeaVKiFBN0iXHVZ5jo_-118" value="SMALLINT UNSIGNED" style="shape=partialRectangle;html=1;whiteSpace=wrap;connectable=0;fillColor=none;top=0;left=0;bottom=0;right=0;align=left;spacingLeft=6;overflow=hidden;strokeColor=inherit;fontSize=16;" vertex="1" parent="-jynn4VAvdDgv4GhpCzi-44">
          <mxGeometry x="180" width="180" height="30" as="geometry">
            <mxRectangle width="180" height="30" as="alternateBounds" />
          </mxGeometry>
        </mxCell>
        <mxCell id="yXeaVKiFBN0iXHVZ5jo_-122" value="PRIMARY_KEY" style="shape=partialRectangle;html=1;whiteSpace=wrap;connectable=0;fillColor=none;top=0;left=0;bottom=0;right=0;align=left;spacingLeft=6;overflow=hidden;strokeColor=inherit;fontSize=16;" vertex="1" parent="-jynn4VAvdDgv4GhpCzi-44">
          <mxGeometry x="360" width="180" height="30" as="geometry">
            <mxRectangle width="180" height="30" as="alternateBounds" />
          </mxGeometry>
        </mxCell>
        <mxCell id="-jynn4VAvdDgv4GhpCzi-47" value="" style="shape=tableRow;horizontal=0;startSize=0;swimlaneHead=0;swimlaneBody=0;top=0;left=0;bottom=0;right=0;collapsible=0;dropTarget=0;fillColor=none;points=[[0,0.5],[1,0.5]];portConstraint=eastwest;strokeColor=inherit;fontSize=16;" vertex="1" parent="-jynn4VAvdDgv4GhpCzi-43">
          <mxGeometry y="60" width="540" height="20" as="geometry" />
        </mxCell>
        <mxCell id="-jynn4VAvdDgv4GhpCzi-49" value="id_corso_di_laurea" style="shape=partialRectangle;html=1;whiteSpace=wrap;connectable=0;fillColor=none;top=0;left=0;bottom=0;right=0;align=left;spacingLeft=6;overflow=hidden;strokeColor=inherit;fontSize=16;" vertex="1" parent="-jynn4VAvdDgv4GhpCzi-47">
          <mxGeometry width="180" height="20" as="geometry">
            <mxRectangle width="180" height="20" as="alternateBounds" />
          </mxGeometry>
        </mxCell>
        <mxCell id="yXeaVKiFBN0iXHVZ5jo_-119" value="FOREIGN_KEY" style="shape=partialRectangle;html=1;whiteSpace=wrap;connectable=0;fillColor=none;top=0;left=0;bottom=0;right=0;align=left;spacingLeft=6;overflow=hidden;strokeColor=inherit;fontSize=16;" vertex="1" parent="-jynn4VAvdDgv4GhpCzi-47">
          <mxGeometry x="180" width="180" height="20" as="geometry">
            <mxRectangle width="180" height="20" as="alternateBounds" />
          </mxGeometry>
        </mxCell>
        <mxCell id="yXeaVKiFBN0iXHVZ5jo_-123" value="" style="shape=partialRectangle;html=1;whiteSpace=wrap;connectable=0;fillColor=none;top=0;left=0;bottom=0;right=0;align=left;spacingLeft=6;overflow=hidden;strokeColor=inherit;fontSize=16;" vertex="1" parent="-jynn4VAvdDgv4GhpCzi-47">
          <mxGeometry x="360" width="180" height="20" as="geometry">
            <mxRectangle width="180" height="20" as="alternateBounds" />
          </mxGeometry>
        </mxCell>
        <mxCell id="-jynn4VAvdDgv4GhpCzi-50" value="" style="shape=tableRow;horizontal=0;startSize=0;swimlaneHead=0;swimlaneBody=0;top=0;left=0;bottom=0;right=0;collapsible=0;dropTarget=0;fillColor=none;points=[[0,0.5],[1,0.5]];portConstraint=eastwest;strokeColor=inherit;fontSize=16;" vertex="1" parent="-jynn4VAvdDgv4GhpCzi-43">
          <mxGeometry y="80" width="540" height="30" as="geometry" />
        </mxCell>
        <mxCell id="-jynn4VAvdDgv4GhpCzi-52" value="nome_materia" style="shape=partialRectangle;html=1;whiteSpace=wrap;connectable=0;fillColor=none;top=0;left=0;bottom=0;right=0;align=left;spacingLeft=6;overflow=hidden;strokeColor=inherit;fontSize=16;" vertex="1" parent="-jynn4VAvdDgv4GhpCzi-50">
          <mxGeometry width="180" height="30" as="geometry">
            <mxRectangle width="180" height="30" as="alternateBounds" />
          </mxGeometry>
        </mxCell>
        <mxCell id="yXeaVKiFBN0iXHVZ5jo_-120" value="VARCHAR(30)" style="shape=partialRectangle;html=1;whiteSpace=wrap;connectable=0;fillColor=none;top=0;left=0;bottom=0;right=0;align=left;spacingLeft=6;overflow=hidden;strokeColor=inherit;fontSize=16;" vertex="1" parent="-jynn4VAvdDgv4GhpCzi-50">
          <mxGeometry x="180" width="180" height="30" as="geometry">
            <mxRectangle width="180" height="30" as="alternateBounds" />
          </mxGeometry>
        </mxCell>
        <mxCell id="yXeaVKiFBN0iXHVZ5jo_-124" value="NOT_NULL" style="shape=partialRectangle;html=1;whiteSpace=wrap;connectable=0;fillColor=none;top=0;left=0;bottom=0;right=0;align=left;spacingLeft=6;overflow=hidden;strokeColor=inherit;fontSize=16;" vertex="1" parent="-jynn4VAvdDgv4GhpCzi-50">
          <mxGeometry x="360" width="180" height="30" as="geometry">
            <mxRectangle width="180" height="30" as="alternateBounds" />
          </mxGeometry>
        </mxCell>
        <mxCell id="-jynn4VAvdDgv4GhpCzi-188" style="shape=tableRow;horizontal=0;startSize=0;swimlaneHead=0;swimlaneBody=0;top=0;left=0;bottom=0;right=0;collapsible=0;dropTarget=0;fillColor=none;points=[[0,0.5],[1,0.5]];portConstraint=eastwest;strokeColor=inherit;fontSize=16;" vertex="1" parent="-jynn4VAvdDgv4GhpCzi-43">
          <mxGeometry y="110" width="540" height="30" as="geometry" />
        </mxCell>
        <mxCell id="-jynn4VAvdDgv4GhpCzi-190" value="crediti" style="shape=partialRectangle;html=1;whiteSpace=wrap;connectable=0;fillColor=none;top=0;left=0;bottom=0;right=0;align=left;spacingLeft=6;overflow=hidden;strokeColor=inherit;fontSize=16;" vertex="1" parent="-jynn4VAvdDgv4GhpCzi-188">
          <mxGeometry width="180" height="30" as="geometry">
            <mxRectangle width="180" height="30" as="alternateBounds" />
          </mxGeometry>
        </mxCell>
        <mxCell id="yXeaVKiFBN0iXHVZ5jo_-121" value="TINYINT UNSIGNED" style="shape=partialRectangle;html=1;whiteSpace=wrap;connectable=0;fillColor=none;top=0;left=0;bottom=0;right=0;align=left;spacingLeft=6;overflow=hidden;strokeColor=inherit;fontSize=16;" vertex="1" parent="-jynn4VAvdDgv4GhpCzi-188">
          <mxGeometry x="180" width="180" height="30" as="geometry">
            <mxRectangle width="180" height="30" as="alternateBounds" />
          </mxGeometry>
        </mxCell>
        <mxCell id="yXeaVKiFBN0iXHVZ5jo_-125" value="NOT_NULL" style="shape=partialRectangle;html=1;whiteSpace=wrap;connectable=0;fillColor=none;top=0;left=0;bottom=0;right=0;align=left;spacingLeft=6;overflow=hidden;strokeColor=inherit;fontSize=16;" vertex="1" parent="-jynn4VAvdDgv4GhpCzi-188">
          <mxGeometry x="360" width="180" height="30" as="geometry">
            <mxRectangle width="180" height="30" as="alternateBounds" />
          </mxGeometry>
        </mxCell>
        <mxCell id="-jynn4VAvdDgv4GhpCzi-58" value="Insegnanti" style="shape=table;startSize=25;container=1;collapsible=0;childLayout=tableLayout;fixedRows=1;rowLines=0;fontStyle=0;strokeColor=default;fontSize=16;" vertex="1" parent="1">
          <mxGeometry x="2090" y="35" width="440" height="135" as="geometry" />
        </mxCell>
        <mxCell id="-jynn4VAvdDgv4GhpCzi-59" value="" style="shape=tableRow;horizontal=0;startSize=0;swimlaneHead=0;swimlaneBody=0;top=0;left=0;bottom=0;right=0;collapsible=0;dropTarget=0;fillColor=none;points=[[0,0.5],[1,0.5]];portConstraint=eastwest;strokeColor=inherit;fontSize=16;" vertex="1" parent="-jynn4VAvdDgv4GhpCzi-58">
          <mxGeometry y="25" width="440" height="40" as="geometry" />
        </mxCell>
        <mxCell id="-jynn4VAvdDgv4GhpCzi-61" value="id" style="shape=partialRectangle;html=1;whiteSpace=wrap;connectable=0;fillColor=none;top=0;left=0;bottom=0;right=0;align=left;spacingLeft=6;overflow=hidden;strokeColor=inherit;fontSize=16;" vertex="1" parent="-jynn4VAvdDgv4GhpCzi-59">
          <mxGeometry width="147" height="40" as="geometry">
            <mxRectangle width="147" height="40" as="alternateBounds" />
          </mxGeometry>
        </mxCell>
        <mxCell id="yXeaVKiFBN0iXHVZ5jo_-139" value="SMALLINT UNSIGNED" style="shape=partialRectangle;html=1;whiteSpace=wrap;connectable=0;fillColor=none;top=0;left=0;bottom=0;right=0;align=left;spacingLeft=6;overflow=hidden;strokeColor=inherit;fontSize=16;" vertex="1" parent="-jynn4VAvdDgv4GhpCzi-59">
          <mxGeometry x="147" width="146" height="40" as="geometry">
            <mxRectangle width="146" height="40" as="alternateBounds" />
          </mxGeometry>
        </mxCell>
        <mxCell id="yXeaVKiFBN0iXHVZ5jo_-142" value="PRIMARY_KEY" style="shape=partialRectangle;html=1;whiteSpace=wrap;connectable=0;fillColor=none;top=0;left=0;bottom=0;right=0;align=left;spacingLeft=6;overflow=hidden;strokeColor=inherit;fontSize=16;" vertex="1" parent="-jynn4VAvdDgv4GhpCzi-59">
          <mxGeometry x="293" width="147" height="40" as="geometry">
            <mxRectangle width="147" height="40" as="alternateBounds" />
          </mxGeometry>
        </mxCell>
        <mxCell id="-jynn4VAvdDgv4GhpCzi-62" value="" style="shape=tableRow;horizontal=0;startSize=0;swimlaneHead=0;swimlaneBody=0;top=0;left=0;bottom=0;right=0;collapsible=0;dropTarget=0;fillColor=none;points=[[0,0.5],[1,0.5]];portConstraint=eastwest;strokeColor=inherit;fontSize=16;" vertex="1" parent="-jynn4VAvdDgv4GhpCzi-58">
          <mxGeometry y="65" width="440" height="30" as="geometry" />
        </mxCell>
        <mxCell id="-jynn4VAvdDgv4GhpCzi-64" value="nome" style="shape=partialRectangle;html=1;whiteSpace=wrap;connectable=0;fillColor=none;top=0;left=0;bottom=0;right=0;align=left;spacingLeft=6;overflow=hidden;strokeColor=inherit;fontSize=16;" vertex="1" parent="-jynn4VAvdDgv4GhpCzi-62">
          <mxGeometry width="147" height="30" as="geometry">
            <mxRectangle width="147" height="30" as="alternateBounds" />
          </mxGeometry>
        </mxCell>
        <mxCell id="yXeaVKiFBN0iXHVZ5jo_-140" value="VARCHAR(30)" style="shape=partialRectangle;html=1;whiteSpace=wrap;connectable=0;fillColor=none;top=0;left=0;bottom=0;right=0;align=left;spacingLeft=6;overflow=hidden;strokeColor=inherit;fontSize=16;" vertex="1" parent="-jynn4VAvdDgv4GhpCzi-62">
          <mxGeometry x="147" width="146" height="30" as="geometry">
            <mxRectangle width="146" height="30" as="alternateBounds" />
          </mxGeometry>
        </mxCell>
        <mxCell id="yXeaVKiFBN0iXHVZ5jo_-143" value="NOT_NULL" style="shape=partialRectangle;html=1;whiteSpace=wrap;connectable=0;fillColor=none;top=0;left=0;bottom=0;right=0;align=left;spacingLeft=6;overflow=hidden;strokeColor=inherit;fontSize=16;" vertex="1" parent="-jynn4VAvdDgv4GhpCzi-62">
          <mxGeometry x="293" width="147" height="30" as="geometry">
            <mxRectangle width="147" height="30" as="alternateBounds" />
          </mxGeometry>
        </mxCell>
        <mxCell id="-jynn4VAvdDgv4GhpCzi-65" value="" style="shape=tableRow;horizontal=0;startSize=0;swimlaneHead=0;swimlaneBody=0;top=0;left=0;bottom=0;right=0;collapsible=0;dropTarget=0;fillColor=none;points=[[0,0.5],[1,0.5]];portConstraint=eastwest;strokeColor=inherit;fontSize=16;" vertex="1" parent="-jynn4VAvdDgv4GhpCzi-58">
          <mxGeometry y="95" width="440" height="30" as="geometry" />
        </mxCell>
        <mxCell id="-jynn4VAvdDgv4GhpCzi-67" value="cognome" style="shape=partialRectangle;html=1;whiteSpace=wrap;connectable=0;fillColor=none;top=0;left=0;bottom=0;right=0;align=left;spacingLeft=6;overflow=hidden;strokeColor=inherit;fontSize=16;" vertex="1" parent="-jynn4VAvdDgv4GhpCzi-65">
          <mxGeometry width="147" height="30" as="geometry">
            <mxRectangle width="147" height="30" as="alternateBounds" />
          </mxGeometry>
        </mxCell>
        <mxCell id="yXeaVKiFBN0iXHVZ5jo_-141" value="VARCHAR(30)" style="shape=partialRectangle;html=1;whiteSpace=wrap;connectable=0;fillColor=none;top=0;left=0;bottom=0;right=0;align=left;spacingLeft=6;overflow=hidden;strokeColor=inherit;fontSize=16;" vertex="1" parent="-jynn4VAvdDgv4GhpCzi-65">
          <mxGeometry x="147" width="146" height="30" as="geometry">
            <mxRectangle width="146" height="30" as="alternateBounds" />
          </mxGeometry>
        </mxCell>
        <mxCell id="yXeaVKiFBN0iXHVZ5jo_-144" value="NOT_NULL" style="shape=partialRectangle;html=1;whiteSpace=wrap;connectable=0;fillColor=none;top=0;left=0;bottom=0;right=0;align=left;spacingLeft=6;overflow=hidden;strokeColor=inherit;fontSize=16;" vertex="1" parent="-jynn4VAvdDgv4GhpCzi-65">
          <mxGeometry x="293" width="147" height="30" as="geometry">
            <mxRectangle width="147" height="30" as="alternateBounds" />
          </mxGeometry>
        </mxCell>
        <mxCell id="-jynn4VAvdDgv4GhpCzi-70" value="Studente" style="shape=table;startSize=30;container=1;collapsible=0;childLayout=tableLayout;fixedRows=1;rowLines=0;fontStyle=0;strokeColor=default;fontSize=16;movable=1;resizable=1;rotatable=1;deletable=1;editable=1;locked=0;connectable=1;" vertex="1" parent="1">
          <mxGeometry x="459.5" y="390" width="555" height="240" as="geometry" />
        </mxCell>
        <mxCell id="-jynn4VAvdDgv4GhpCzi-71" value="" style="shape=tableRow;horizontal=0;startSize=0;swimlaneHead=0;swimlaneBody=0;top=0;left=0;bottom=0;right=0;collapsible=0;dropTarget=0;fillColor=none;points=[[0,0.5],[1,0.5]];portConstraint=eastwest;strokeColor=inherit;fontSize=16;movable=1;resizable=1;rotatable=1;deletable=1;editable=1;locked=0;connectable=1;" vertex="1" parent="-jynn4VAvdDgv4GhpCzi-70">
          <mxGeometry y="30" width="555" height="30" as="geometry" />
        </mxCell>
        <mxCell id="-jynn4VAvdDgv4GhpCzi-73" value="id" style="shape=partialRectangle;html=1;whiteSpace=wrap;connectable=1;fillColor=none;top=0;left=0;bottom=0;right=0;align=left;spacingLeft=6;overflow=hidden;strokeColor=inherit;fontSize=16;movable=1;resizable=1;rotatable=1;deletable=1;editable=1;locked=0;" vertex="1" parent="-jynn4VAvdDgv4GhpCzi-71">
          <mxGeometry width="185" height="30" as="geometry">
            <mxRectangle width="185" height="30" as="alternateBounds" />
          </mxGeometry>
        </mxCell>
        <mxCell id="yXeaVKiFBN0iXHVZ5jo_-104" value="SMALLINT UNSIGNED" style="shape=partialRectangle;html=1;whiteSpace=wrap;connectable=1;fillColor=none;top=0;left=0;bottom=0;right=0;align=left;spacingLeft=6;overflow=hidden;strokeColor=inherit;fontSize=16;movable=1;resizable=1;rotatable=1;deletable=1;editable=1;locked=0;" vertex="1" parent="-jynn4VAvdDgv4GhpCzi-71">
          <mxGeometry x="185" width="185" height="30" as="geometry">
            <mxRectangle width="185" height="30" as="alternateBounds" />
          </mxGeometry>
        </mxCell>
        <mxCell id="yXeaVKiFBN0iXHVZ5jo_-95" value="PRIMARY_KEY" style="shape=partialRectangle;html=1;whiteSpace=wrap;connectable=1;fillColor=none;top=0;left=0;bottom=0;right=0;align=left;spacingLeft=6;overflow=hidden;strokeColor=inherit;fontSize=16;movable=1;resizable=1;rotatable=1;deletable=1;editable=1;locked=0;" vertex="1" parent="-jynn4VAvdDgv4GhpCzi-71">
          <mxGeometry x="370" width="185" height="30" as="geometry">
            <mxRectangle width="185" height="30" as="alternateBounds" />
          </mxGeometry>
        </mxCell>
        <mxCell id="yXeaVKiFBN0iXHVZ5jo_-101" style="shape=tableRow;horizontal=0;startSize=0;swimlaneHead=0;swimlaneBody=0;top=0;left=0;bottom=0;right=0;collapsible=0;dropTarget=0;fillColor=none;points=[[0,0.5],[1,0.5]];portConstraint=eastwest;strokeColor=inherit;fontSize=16;movable=1;resizable=1;rotatable=1;deletable=1;editable=1;locked=0;connectable=1;" vertex="1" parent="-jynn4VAvdDgv4GhpCzi-70">
          <mxGeometry y="60" width="555" height="30" as="geometry" />
        </mxCell>
        <mxCell id="yXeaVKiFBN0iXHVZ5jo_-102" value="id_corso_di_laurea" style="shape=partialRectangle;html=1;whiteSpace=wrap;connectable=1;fillColor=none;top=0;left=0;bottom=0;right=0;align=left;spacingLeft=6;overflow=hidden;strokeColor=inherit;fontSize=16;movable=1;resizable=1;rotatable=1;deletable=1;editable=1;locked=0;" vertex="1" parent="yXeaVKiFBN0iXHVZ5jo_-101">
          <mxGeometry width="185" height="30" as="geometry">
            <mxRectangle width="185" height="30" as="alternateBounds" />
          </mxGeometry>
        </mxCell>
        <mxCell id="yXeaVKiFBN0iXHVZ5jo_-105" value="FOREGIN_KEY" style="shape=partialRectangle;html=1;whiteSpace=wrap;connectable=1;fillColor=none;top=0;left=0;bottom=0;right=0;align=left;spacingLeft=6;overflow=hidden;strokeColor=inherit;fontSize=16;movable=1;resizable=1;rotatable=1;deletable=1;editable=1;locked=0;" vertex="1" parent="yXeaVKiFBN0iXHVZ5jo_-101">
          <mxGeometry x="185" width="185" height="30" as="geometry">
            <mxRectangle width="185" height="30" as="alternateBounds" />
          </mxGeometry>
        </mxCell>
        <mxCell id="yXeaVKiFBN0iXHVZ5jo_-103" value="-" style="shape=partialRectangle;html=1;whiteSpace=wrap;connectable=1;fillColor=none;top=0;left=0;bottom=0;right=0;align=left;spacingLeft=6;overflow=hidden;strokeColor=inherit;fontSize=16;movable=1;resizable=1;rotatable=1;deletable=1;editable=1;locked=0;" vertex="1" parent="yXeaVKiFBN0iXHVZ5jo_-101">
          <mxGeometry x="370" width="185" height="30" as="geometry">
            <mxRectangle width="185" height="30" as="alternateBounds" />
          </mxGeometry>
        </mxCell>
        <mxCell id="-jynn4VAvdDgv4GhpCzi-74" value="" style="shape=tableRow;horizontal=0;startSize=0;swimlaneHead=0;swimlaneBody=0;top=0;left=0;bottom=0;right=0;collapsible=0;dropTarget=0;fillColor=none;points=[[0,0.5],[1,0.5]];portConstraint=eastwest;strokeColor=inherit;fontSize=16;movable=1;resizable=1;rotatable=1;deletable=1;editable=1;locked=0;connectable=1;" vertex="1" parent="-jynn4VAvdDgv4GhpCzi-70">
          <mxGeometry y="90" width="555" height="30" as="geometry" />
        </mxCell>
        <mxCell id="-jynn4VAvdDgv4GhpCzi-76" value="nome" style="shape=partialRectangle;html=1;whiteSpace=wrap;connectable=1;fillColor=none;top=0;left=0;bottom=0;right=0;align=left;spacingLeft=6;overflow=hidden;strokeColor=inherit;fontSize=16;movable=1;resizable=1;rotatable=1;deletable=1;editable=1;locked=0;" vertex="1" parent="-jynn4VAvdDgv4GhpCzi-74">
          <mxGeometry width="185" height="30" as="geometry">
            <mxRectangle width="185" height="30" as="alternateBounds" />
          </mxGeometry>
        </mxCell>
        <mxCell id="yXeaVKiFBN0iXHVZ5jo_-106" value="VARCHAR(30)" style="shape=partialRectangle;html=1;whiteSpace=wrap;connectable=1;fillColor=none;top=0;left=0;bottom=0;right=0;align=left;spacingLeft=6;overflow=hidden;strokeColor=inherit;fontSize=16;movable=1;resizable=1;rotatable=1;deletable=1;editable=1;locked=0;" vertex="1" parent="-jynn4VAvdDgv4GhpCzi-74">
          <mxGeometry x="185" width="185" height="30" as="geometry">
            <mxRectangle width="185" height="30" as="alternateBounds" />
          </mxGeometry>
        </mxCell>
        <mxCell id="yXeaVKiFBN0iXHVZ5jo_-96" value="NOT_NULL" style="shape=partialRectangle;html=1;whiteSpace=wrap;connectable=1;fillColor=none;top=0;left=0;bottom=0;right=0;align=left;spacingLeft=6;overflow=hidden;strokeColor=inherit;fontSize=16;movable=1;resizable=1;rotatable=1;deletable=1;editable=1;locked=0;" vertex="1" parent="-jynn4VAvdDgv4GhpCzi-74">
          <mxGeometry x="370" width="185" height="30" as="geometry">
            <mxRectangle width="185" height="30" as="alternateBounds" />
          </mxGeometry>
        </mxCell>
        <mxCell id="-jynn4VAvdDgv4GhpCzi-77" value="" style="shape=tableRow;horizontal=0;startSize=0;swimlaneHead=0;swimlaneBody=0;top=0;left=0;bottom=0;right=0;collapsible=0;dropTarget=0;fillColor=none;points=[[0,0.5],[1,0.5]];portConstraint=eastwest;strokeColor=inherit;fontSize=16;movable=1;resizable=1;rotatable=1;deletable=1;editable=1;locked=0;connectable=1;" vertex="1" parent="-jynn4VAvdDgv4GhpCzi-70">
          <mxGeometry y="120" width="555" height="30" as="geometry" />
        </mxCell>
        <mxCell id="-jynn4VAvdDgv4GhpCzi-79" value="cognome" style="shape=partialRectangle;html=1;whiteSpace=wrap;connectable=1;fillColor=none;top=0;left=0;bottom=0;right=0;align=left;spacingLeft=6;overflow=hidden;strokeColor=inherit;fontSize=16;movable=1;resizable=1;rotatable=1;deletable=1;editable=1;locked=0;" vertex="1" parent="-jynn4VAvdDgv4GhpCzi-77">
          <mxGeometry width="185" height="30" as="geometry">
            <mxRectangle width="185" height="30" as="alternateBounds" />
          </mxGeometry>
        </mxCell>
        <mxCell id="yXeaVKiFBN0iXHVZ5jo_-107" value="VARCHAR(30)" style="shape=partialRectangle;html=1;whiteSpace=wrap;connectable=1;fillColor=none;top=0;left=0;bottom=0;right=0;align=left;spacingLeft=6;overflow=hidden;strokeColor=inherit;fontSize=16;movable=1;resizable=1;rotatable=1;deletable=1;editable=1;locked=0;" vertex="1" parent="-jynn4VAvdDgv4GhpCzi-77">
          <mxGeometry x="185" width="185" height="30" as="geometry">
            <mxRectangle width="185" height="30" as="alternateBounds" />
          </mxGeometry>
        </mxCell>
        <mxCell id="yXeaVKiFBN0iXHVZ5jo_-97" value="NOT_NULL" style="shape=partialRectangle;html=1;whiteSpace=wrap;connectable=1;fillColor=none;top=0;left=0;bottom=0;right=0;align=left;spacingLeft=6;overflow=hidden;strokeColor=inherit;fontSize=16;movable=1;resizable=1;rotatable=1;deletable=1;editable=1;locked=0;" vertex="1" parent="-jynn4VAvdDgv4GhpCzi-77">
          <mxGeometry x="370" width="185" height="30" as="geometry">
            <mxRectangle width="185" height="30" as="alternateBounds" />
          </mxGeometry>
        </mxCell>
        <mxCell id="-jynn4VAvdDgv4GhpCzi-126" style="shape=tableRow;horizontal=0;startSize=0;swimlaneHead=0;swimlaneBody=0;top=0;left=0;bottom=0;right=0;collapsible=0;dropTarget=0;fillColor=none;points=[[0,0.5],[1,0.5]];portConstraint=eastwest;strokeColor=inherit;fontSize=16;movable=1;resizable=1;rotatable=1;deletable=1;editable=1;locked=0;connectable=1;" vertex="1" parent="-jynn4VAvdDgv4GhpCzi-70">
          <mxGeometry y="150" width="555" height="30" as="geometry" />
        </mxCell>
        <mxCell id="-jynn4VAvdDgv4GhpCzi-128" value="matricola" style="shape=partialRectangle;html=1;whiteSpace=wrap;connectable=1;fillColor=none;top=0;left=0;bottom=0;right=0;align=left;spacingLeft=6;overflow=hidden;strokeColor=inherit;fontSize=16;movable=1;resizable=1;rotatable=1;deletable=1;editable=1;locked=0;" vertex="1" parent="-jynn4VAvdDgv4GhpCzi-126">
          <mxGeometry width="185" height="30" as="geometry">
            <mxRectangle width="185" height="30" as="alternateBounds" />
          </mxGeometry>
        </mxCell>
        <mxCell id="yXeaVKiFBN0iXHVZ5jo_-108" value="VARCHAR(15)" style="shape=partialRectangle;html=1;whiteSpace=wrap;connectable=1;fillColor=none;top=0;left=0;bottom=0;right=0;align=left;spacingLeft=6;overflow=hidden;strokeColor=inherit;fontSize=16;movable=1;resizable=1;rotatable=1;deletable=1;editable=1;locked=0;" vertex="1" parent="-jynn4VAvdDgv4GhpCzi-126">
          <mxGeometry x="185" width="185" height="30" as="geometry">
            <mxRectangle width="185" height="30" as="alternateBounds" />
          </mxGeometry>
        </mxCell>
        <mxCell id="yXeaVKiFBN0iXHVZ5jo_-98" value="NOT_NULL UNIQUE" style="shape=partialRectangle;html=1;whiteSpace=wrap;connectable=1;fillColor=none;top=0;left=0;bottom=0;right=0;align=left;spacingLeft=6;overflow=hidden;strokeColor=inherit;fontSize=16;movable=1;resizable=1;rotatable=1;deletable=1;editable=1;locked=0;" vertex="1" parent="-jynn4VAvdDgv4GhpCzi-126">
          <mxGeometry x="370" width="185" height="30" as="geometry">
            <mxRectangle width="185" height="30" as="alternateBounds" />
          </mxGeometry>
        </mxCell>
        <mxCell id="-jynn4VAvdDgv4GhpCzi-129" style="shape=tableRow;horizontal=0;startSize=0;swimlaneHead=0;swimlaneBody=0;top=0;left=0;bottom=0;right=0;collapsible=0;dropTarget=0;fillColor=none;points=[[0,0.5],[1,0.5]];portConstraint=eastwest;strokeColor=inherit;fontSize=16;movable=1;resizable=1;rotatable=1;deletable=1;editable=1;locked=0;connectable=1;" vertex="1" parent="-jynn4VAvdDgv4GhpCzi-70">
          <mxGeometry y="180" width="555" height="30" as="geometry" />
        </mxCell>
        <mxCell id="-jynn4VAvdDgv4GhpCzi-131" value="email" style="shape=partialRectangle;html=1;whiteSpace=wrap;connectable=1;fillColor=none;top=0;left=0;bottom=0;right=0;align=left;spacingLeft=6;overflow=hidden;strokeColor=inherit;fontSize=16;movable=1;resizable=1;rotatable=1;deletable=1;editable=1;locked=0;" vertex="1" parent="-jynn4VAvdDgv4GhpCzi-129">
          <mxGeometry width="185" height="30" as="geometry">
            <mxRectangle width="185" height="30" as="alternateBounds" />
          </mxGeometry>
        </mxCell>
        <mxCell id="yXeaVKiFBN0iXHVZ5jo_-109" value="VARCHAR(30)" style="shape=partialRectangle;html=1;whiteSpace=wrap;connectable=1;fillColor=none;top=0;left=0;bottom=0;right=0;align=left;spacingLeft=6;overflow=hidden;strokeColor=inherit;fontSize=16;movable=1;resizable=1;rotatable=1;deletable=1;editable=1;locked=0;" vertex="1" parent="-jynn4VAvdDgv4GhpCzi-129">
          <mxGeometry x="185" width="185" height="30" as="geometry">
            <mxRectangle width="185" height="30" as="alternateBounds" />
          </mxGeometry>
        </mxCell>
        <mxCell id="yXeaVKiFBN0iXHVZ5jo_-99" value="NOT_NULL UNIQUE" style="shape=partialRectangle;html=1;whiteSpace=wrap;connectable=1;fillColor=none;top=0;left=0;bottom=0;right=0;align=left;spacingLeft=6;overflow=hidden;strokeColor=inherit;fontSize=16;movable=1;resizable=1;rotatable=1;deletable=1;editable=1;locked=0;" vertex="1" parent="-jynn4VAvdDgv4GhpCzi-129">
          <mxGeometry x="370" width="185" height="30" as="geometry">
            <mxRectangle width="185" height="30" as="alternateBounds" />
          </mxGeometry>
        </mxCell>
        <mxCell id="-jynn4VAvdDgv4GhpCzi-132" style="shape=tableRow;horizontal=0;startSize=0;swimlaneHead=0;swimlaneBody=0;top=0;left=0;bottom=0;right=0;collapsible=0;dropTarget=0;fillColor=none;points=[[0,0.5],[1,0.5]];portConstraint=eastwest;strokeColor=inherit;fontSize=16;movable=1;resizable=1;rotatable=1;deletable=1;editable=1;locked=0;connectable=1;" vertex="1" parent="-jynn4VAvdDgv4GhpCzi-70">
          <mxGeometry y="210" width="555" height="30" as="geometry" />
        </mxCell>
        <mxCell id="-jynn4VAvdDgv4GhpCzi-134" value="anno_immatricolazione" style="shape=partialRectangle;html=1;whiteSpace=wrap;connectable=1;fillColor=none;top=0;left=0;bottom=0;right=0;align=left;spacingLeft=6;overflow=hidden;strokeColor=inherit;fontSize=16;movable=1;resizable=1;rotatable=1;deletable=1;editable=1;locked=0;" vertex="1" parent="-jynn4VAvdDgv4GhpCzi-132">
          <mxGeometry width="185" height="30" as="geometry">
            <mxRectangle width="185" height="30" as="alternateBounds" />
          </mxGeometry>
        </mxCell>
        <mxCell id="yXeaVKiFBN0iXHVZ5jo_-110" value="YEAR" style="shape=partialRectangle;html=1;whiteSpace=wrap;connectable=1;fillColor=none;top=0;left=0;bottom=0;right=0;align=left;spacingLeft=6;overflow=hidden;strokeColor=inherit;fontSize=16;movable=1;resizable=1;rotatable=1;deletable=1;editable=1;locked=0;" vertex="1" parent="-jynn4VAvdDgv4GhpCzi-132">
          <mxGeometry x="185" width="185" height="30" as="geometry">
            <mxRectangle width="185" height="30" as="alternateBounds" />
          </mxGeometry>
        </mxCell>
        <mxCell id="yXeaVKiFBN0iXHVZ5jo_-100" value="NOT_NULL" style="shape=partialRectangle;html=1;whiteSpace=wrap;connectable=1;fillColor=none;top=0;left=0;bottom=0;right=0;align=left;spacingLeft=6;overflow=hidden;strokeColor=inherit;fontSize=16;movable=1;resizable=1;rotatable=1;deletable=1;editable=1;locked=0;" vertex="1" parent="-jynn4VAvdDgv4GhpCzi-132">
          <mxGeometry x="370" width="185" height="30" as="geometry">
            <mxRectangle width="185" height="30" as="alternateBounds" />
          </mxGeometry>
        </mxCell>
        <mxCell id="-jynn4VAvdDgv4GhpCzi-139" value="Esame" style="shape=table;startSize=30;container=1;collapsible=0;childLayout=tableLayout;fixedRows=1;rowLines=0;fontStyle=0;strokeColor=default;fontSize=16;movable=1;resizable=1;rotatable=1;deletable=1;editable=1;locked=0;connectable=1;" vertex="1" parent="1">
          <mxGeometry x="1240" y="510" width="414" height="190" as="geometry" />
        </mxCell>
        <mxCell id="-jynn4VAvdDgv4GhpCzi-140" value="" style="shape=tableRow;horizontal=0;startSize=0;swimlaneHead=0;swimlaneBody=0;top=0;left=0;bottom=0;right=0;collapsible=0;dropTarget=0;fillColor=none;points=[[0,0.5],[1,0.5]];portConstraint=eastwest;strokeColor=inherit;fontSize=16;movable=1;resizable=1;rotatable=1;deletable=1;editable=1;locked=0;connectable=1;" vertex="1" parent="-jynn4VAvdDgv4GhpCzi-139">
          <mxGeometry y="30" width="414" height="50" as="geometry" />
        </mxCell>
        <mxCell id="-jynn4VAvdDgv4GhpCzi-142" value="id" style="shape=partialRectangle;html=1;whiteSpace=wrap;connectable=1;fillColor=none;top=0;left=0;bottom=0;right=0;align=left;spacingLeft=6;overflow=hidden;strokeColor=inherit;fontSize=16;movable=1;resizable=1;rotatable=1;deletable=1;editable=1;locked=0;" vertex="1" parent="-jynn4VAvdDgv4GhpCzi-140">
          <mxGeometry width="138" height="50" as="geometry">
            <mxRectangle width="138" height="50" as="alternateBounds" />
          </mxGeometry>
        </mxCell>
        <mxCell id="yXeaVKiFBN0iXHVZ5jo_-126" value="MEDIUMINT" style="shape=partialRectangle;html=1;whiteSpace=wrap;connectable=1;fillColor=none;top=0;left=0;bottom=0;right=0;align=left;spacingLeft=6;overflow=hidden;strokeColor=inherit;fontSize=16;movable=1;resizable=1;rotatable=1;deletable=1;editable=1;locked=0;" vertex="1" parent="-jynn4VAvdDgv4GhpCzi-140">
          <mxGeometry x="138" width="138" height="50" as="geometry">
            <mxRectangle width="138" height="50" as="alternateBounds" />
          </mxGeometry>
        </mxCell>
        <mxCell id="yXeaVKiFBN0iXHVZ5jo_-132" value="PRIMARY_KEY" style="shape=partialRectangle;html=1;whiteSpace=wrap;connectable=1;fillColor=none;top=0;left=0;bottom=0;right=0;align=left;spacingLeft=6;overflow=hidden;strokeColor=inherit;fontSize=16;movable=1;resizable=1;rotatable=1;deletable=1;editable=1;locked=0;" vertex="1" parent="-jynn4VAvdDgv4GhpCzi-140">
          <mxGeometry x="276" width="138" height="50" as="geometry">
            <mxRectangle width="138" height="50" as="alternateBounds" />
          </mxGeometry>
        </mxCell>
        <mxCell id="-jynn4VAvdDgv4GhpCzi-143" value="" style="shape=tableRow;horizontal=0;startSize=0;swimlaneHead=0;swimlaneBody=0;top=0;left=0;bottom=0;right=0;collapsible=0;dropTarget=0;fillColor=none;points=[[0,0.5],[1,0.5]];portConstraint=eastwest;strokeColor=inherit;fontSize=16;movable=1;resizable=1;rotatable=1;deletable=1;editable=1;locked=0;connectable=1;" vertex="1" parent="-jynn4VAvdDgv4GhpCzi-139">
          <mxGeometry y="80" width="414" height="30" as="geometry" />
        </mxCell>
        <mxCell id="-jynn4VAvdDgv4GhpCzi-145" value="id_corso" style="shape=partialRectangle;html=1;whiteSpace=wrap;connectable=1;fillColor=none;top=0;left=0;bottom=0;right=0;align=left;spacingLeft=6;overflow=hidden;strokeColor=inherit;fontSize=16;movable=1;resizable=1;rotatable=1;deletable=1;editable=1;locked=0;" vertex="1" parent="-jynn4VAvdDgv4GhpCzi-143">
          <mxGeometry width="138" height="30" as="geometry">
            <mxRectangle width="138" height="30" as="alternateBounds" />
          </mxGeometry>
        </mxCell>
        <mxCell id="yXeaVKiFBN0iXHVZ5jo_-127" value="FOREIGN_KEY" style="shape=partialRectangle;html=1;whiteSpace=wrap;connectable=1;fillColor=none;top=0;left=0;bottom=0;right=0;align=left;spacingLeft=6;overflow=hidden;strokeColor=inherit;fontSize=16;movable=1;resizable=1;rotatable=1;deletable=1;editable=1;locked=0;" vertex="1" parent="-jynn4VAvdDgv4GhpCzi-143">
          <mxGeometry x="138" width="138" height="30" as="geometry">
            <mxRectangle width="138" height="30" as="alternateBounds" />
          </mxGeometry>
        </mxCell>
        <mxCell id="yXeaVKiFBN0iXHVZ5jo_-133" value="-" style="shape=partialRectangle;html=1;whiteSpace=wrap;connectable=1;fillColor=none;top=0;left=0;bottom=0;right=0;align=left;spacingLeft=6;overflow=hidden;strokeColor=inherit;fontSize=16;movable=1;resizable=1;rotatable=1;deletable=1;editable=1;locked=0;" vertex="1" parent="-jynn4VAvdDgv4GhpCzi-143">
          <mxGeometry x="276" width="138" height="30" as="geometry">
            <mxRectangle width="138" height="30" as="alternateBounds" />
          </mxGeometry>
        </mxCell>
        <mxCell id="-jynn4VAvdDgv4GhpCzi-146" value="" style="shape=tableRow;horizontal=0;startSize=0;swimlaneHead=0;swimlaneBody=0;top=0;left=0;bottom=0;right=0;collapsible=0;dropTarget=0;fillColor=none;points=[[0,0.5],[1,0.5]];portConstraint=eastwest;strokeColor=inherit;fontSize=16;movable=1;resizable=1;rotatable=1;deletable=1;editable=1;locked=0;connectable=1;" vertex="1" parent="-jynn4VAvdDgv4GhpCzi-139">
          <mxGeometry y="110" width="414" height="20" as="geometry" />
        </mxCell>
        <mxCell id="-jynn4VAvdDgv4GhpCzi-148" value="cfu" style="shape=partialRectangle;html=1;whiteSpace=wrap;connectable=1;fillColor=none;top=0;left=0;bottom=0;right=0;align=left;spacingLeft=6;overflow=hidden;strokeColor=inherit;fontSize=16;movable=1;resizable=1;rotatable=1;deletable=1;editable=1;locked=0;" vertex="1" parent="-jynn4VAvdDgv4GhpCzi-146">
          <mxGeometry width="138" height="20" as="geometry">
            <mxRectangle width="138" height="20" as="alternateBounds" />
          </mxGeometry>
        </mxCell>
        <mxCell id="yXeaVKiFBN0iXHVZ5jo_-128" value="TINYINT&amp;nbsp;" style="shape=partialRectangle;html=1;whiteSpace=wrap;connectable=1;fillColor=none;top=0;left=0;bottom=0;right=0;align=left;spacingLeft=6;overflow=hidden;strokeColor=inherit;fontSize=16;movable=1;resizable=1;rotatable=1;deletable=1;editable=1;locked=0;" vertex="1" parent="-jynn4VAvdDgv4GhpCzi-146">
          <mxGeometry x="138" width="138" height="20" as="geometry">
            <mxRectangle width="138" height="20" as="alternateBounds" />
          </mxGeometry>
        </mxCell>
        <mxCell id="yXeaVKiFBN0iXHVZ5jo_-134" value="NOT_NULL" style="shape=partialRectangle;html=1;whiteSpace=wrap;connectable=1;fillColor=none;top=0;left=0;bottom=0;right=0;align=left;spacingLeft=6;overflow=hidden;strokeColor=inherit;fontSize=16;movable=1;resizable=1;rotatable=1;deletable=1;editable=1;locked=0;" vertex="1" parent="-jynn4VAvdDgv4GhpCzi-146">
          <mxGeometry x="276" width="138" height="20" as="geometry">
            <mxRectangle width="138" height="20" as="alternateBounds" />
          </mxGeometry>
        </mxCell>
        <mxCell id="-jynn4VAvdDgv4GhpCzi-149" style="shape=tableRow;horizontal=0;startSize=0;swimlaneHead=0;swimlaneBody=0;top=0;left=0;bottom=0;right=0;collapsible=0;dropTarget=0;fillColor=none;points=[[0,0.5],[1,0.5]];portConstraint=eastwest;strokeColor=inherit;fontSize=16;movable=1;resizable=1;rotatable=1;deletable=1;editable=1;locked=0;connectable=1;" vertex="1" parent="-jynn4VAvdDgv4GhpCzi-139">
          <mxGeometry y="130" width="414" height="30" as="geometry" />
        </mxCell>
        <mxCell id="-jynn4VAvdDgv4GhpCzi-151" value="modalità" style="shape=partialRectangle;html=1;whiteSpace=wrap;connectable=1;fillColor=none;top=0;left=0;bottom=0;right=0;align=left;spacingLeft=6;overflow=hidden;strokeColor=inherit;fontSize=16;movable=1;resizable=1;rotatable=1;deletable=1;editable=1;locked=0;" vertex="1" parent="-jynn4VAvdDgv4GhpCzi-149">
          <mxGeometry width="138" height="30" as="geometry">
            <mxRectangle width="138" height="30" as="alternateBounds" />
          </mxGeometry>
        </mxCell>
        <mxCell id="yXeaVKiFBN0iXHVZ5jo_-129" value="VARCHAR(20)" style="shape=partialRectangle;html=1;whiteSpace=wrap;connectable=1;fillColor=none;top=0;left=0;bottom=0;right=0;align=left;spacingLeft=6;overflow=hidden;strokeColor=inherit;fontSize=16;movable=1;resizable=1;rotatable=1;deletable=1;editable=1;locked=0;" vertex="1" parent="-jynn4VAvdDgv4GhpCzi-149">
          <mxGeometry x="138" width="138" height="30" as="geometry">
            <mxRectangle width="138" height="30" as="alternateBounds" />
          </mxGeometry>
        </mxCell>
        <mxCell id="yXeaVKiFBN0iXHVZ5jo_-135" value="NOT_NULL" style="shape=partialRectangle;html=1;whiteSpace=wrap;connectable=1;fillColor=none;top=0;left=0;bottom=0;right=0;align=left;spacingLeft=6;overflow=hidden;strokeColor=inherit;fontSize=16;movable=1;resizable=1;rotatable=1;deletable=1;editable=1;locked=0;" vertex="1" parent="-jynn4VAvdDgv4GhpCzi-149">
          <mxGeometry x="276" width="138" height="30" as="geometry">
            <mxRectangle width="138" height="30" as="alternateBounds" />
          </mxGeometry>
        </mxCell>
        <mxCell id="yXeaVKiFBN0iXHVZ5jo_-115" style="shape=tableRow;horizontal=0;startSize=0;swimlaneHead=0;swimlaneBody=0;top=0;left=0;bottom=0;right=0;collapsible=0;dropTarget=0;fillColor=none;points=[[0,0.5],[1,0.5]];portConstraint=eastwest;strokeColor=inherit;fontSize=16;movable=1;resizable=1;rotatable=1;deletable=1;editable=1;locked=0;connectable=1;" vertex="1" parent="-jynn4VAvdDgv4GhpCzi-139">
          <mxGeometry y="160" width="414" height="30" as="geometry" />
        </mxCell>
        <mxCell id="yXeaVKiFBN0iXHVZ5jo_-116" value="data_appello" style="shape=partialRectangle;html=1;whiteSpace=wrap;connectable=1;fillColor=none;top=0;left=0;bottom=0;right=0;align=left;spacingLeft=6;overflow=hidden;strokeColor=inherit;fontSize=16;movable=1;resizable=1;rotatable=1;deletable=1;editable=1;locked=0;" vertex="1" parent="yXeaVKiFBN0iXHVZ5jo_-115">
          <mxGeometry width="138" height="30" as="geometry">
            <mxRectangle width="138" height="30" as="alternateBounds" />
          </mxGeometry>
        </mxCell>
        <mxCell id="yXeaVKiFBN0iXHVZ5jo_-131" value="DATE" style="shape=partialRectangle;html=1;whiteSpace=wrap;connectable=1;fillColor=none;top=0;left=0;bottom=0;right=0;align=left;spacingLeft=6;overflow=hidden;strokeColor=inherit;fontSize=16;movable=1;resizable=1;rotatable=1;deletable=1;editable=1;locked=0;" vertex="1" parent="yXeaVKiFBN0iXHVZ5jo_-115">
          <mxGeometry x="138" width="138" height="30" as="geometry">
            <mxRectangle width="138" height="30" as="alternateBounds" />
          </mxGeometry>
        </mxCell>
        <mxCell id="yXeaVKiFBN0iXHVZ5jo_-137" value="NOT_NULL" style="shape=partialRectangle;html=1;whiteSpace=wrap;connectable=1;fillColor=none;top=0;left=0;bottom=0;right=0;align=left;spacingLeft=6;overflow=hidden;strokeColor=inherit;fontSize=16;movable=1;resizable=1;rotatable=1;deletable=1;editable=1;locked=0;" vertex="1" parent="yXeaVKiFBN0iXHVZ5jo_-115">
          <mxGeometry x="276" width="138" height="30" as="geometry">
            <mxRectangle width="138" height="30" as="alternateBounds" />
          </mxGeometry>
        </mxCell>
        <mxCell id="yXeaVKiFBN0iXHVZ5jo_-7" value="One To Many" style="html=1;whiteSpace=wrap;aspect=fixed;shape=isoRectangle;" vertex="1" parent="1">
          <mxGeometry x="100" y="55" width="150" height="90" as="geometry" />
        </mxCell>
        <mxCell id="yXeaVKiFBN0iXHVZ5jo_-10" value="" style="endArrow=classic;html=1;rounded=0;exitX=0.996;exitY=0.5;exitDx=0;exitDy=0;exitPerimeter=0;entryX=-0.02;entryY=0.1;entryDx=0;entryDy=0;entryPerimeter=0;" edge="1" parent="1" source="yXeaVKiFBN0iXHVZ5jo_-7" target="-jynn4VAvdDgv4GhpCzi-2">
          <mxGeometry width="50" height="50" relative="1" as="geometry">
            <mxPoint x="570" y="270" as="sourcePoint" />
            <mxPoint x="540" y="120" as="targetPoint" />
          </mxGeometry>
        </mxCell>
        <mxCell id="yXeaVKiFBN0iXHVZ5jo_-11" value="" style="endArrow=none;html=1;rounded=0;entryX=0.04;entryY=0.524;entryDx=0;entryDy=0;entryPerimeter=0;" edge="1" parent="1" target="yXeaVKiFBN0iXHVZ5jo_-7">
          <mxGeometry width="50" height="50" relative="1" as="geometry">
            <mxPoint x="40" y="270" as="sourcePoint" />
            <mxPoint x="60.15000000000009" y="102.61000000000013" as="targetPoint" />
          </mxGeometry>
        </mxCell>
        <mxCell id="yXeaVKiFBN0iXHVZ5jo_-12" value="One To Many" style="html=1;whiteSpace=wrap;aspect=fixed;shape=isoRectangle;" vertex="1" parent="1">
          <mxGeometry x="1120" y="-120" width="114" height="68.4" as="geometry" />
        </mxCell>
        <mxCell id="yXeaVKiFBN0iXHVZ5jo_-13" value="" style="endArrow=classic;html=1;rounded=0;exitX=0.996;exitY=0.5;exitDx=0;exitDy=0;exitPerimeter=0;entryX=0.5;entryY=0;entryDx=0;entryDy=0;" edge="1" parent="1" source="yXeaVKiFBN0iXHVZ5jo_-12" target="-jynn4VAvdDgv4GhpCzi-43">
          <mxGeometry width="50" height="50" relative="1" as="geometry">
            <mxPoint x="1314" y="80" as="sourcePoint" />
            <mxPoint x="1340" y="-140" as="targetPoint" />
          </mxGeometry>
        </mxCell>
        <mxCell id="yXeaVKiFBN0iXHVZ5jo_-14" value="" style="endArrow=none;html=1;rounded=0;exitX=1.013;exitY=0.075;exitDx=0;exitDy=0;exitPerimeter=0;entryX=-0.007;entryY=0.518;entryDx=0;entryDy=0;entryPerimeter=0;" edge="1" parent="1" source="-jynn4VAvdDgv4GhpCzi-6" target="yXeaVKiFBN0iXHVZ5jo_-12">
          <mxGeometry width="50" height="50" relative="1" as="geometry">
            <mxPoint x="990" y="60" as="sourcePoint" />
            <mxPoint x="1040" y="10" as="targetPoint" />
          </mxGeometry>
        </mxCell>
        <mxCell id="yXeaVKiFBN0iXHVZ5jo_-17" value="insegnanti_corsi" style="shape=table;startSize=30;container=1;collapsible=0;childLayout=tableLayout;fixedRows=1;rowLines=0;fontStyle=0;strokeColor=default;fontSize=16;" vertex="1" parent="1">
          <mxGeometry x="1840" y="60" width="160" height="60" as="geometry" />
        </mxCell>
        <mxCell id="yXeaVKiFBN0iXHVZ5jo_-18" value="" style="shape=tableRow;horizontal=0;startSize=0;swimlaneHead=0;swimlaneBody=0;top=0;left=0;bottom=0;right=0;collapsible=0;dropTarget=0;fillColor=none;points=[[0,0.5],[1,0.5]];portConstraint=eastwest;strokeColor=inherit;fontSize=16;" vertex="1" parent="yXeaVKiFBN0iXHVZ5jo_-17">
          <mxGeometry y="30" width="160" height="30" as="geometry" />
        </mxCell>
        <mxCell id="yXeaVKiFBN0iXHVZ5jo_-19" value="corsi_id" style="shape=partialRectangle;html=1;whiteSpace=wrap;connectable=0;fillColor=none;top=0;left=0;bottom=0;right=0;overflow=hidden;pointerEvents=1;strokeColor=inherit;fontSize=16;" vertex="1" parent="yXeaVKiFBN0iXHVZ5jo_-18">
          <mxGeometry width="74" height="30" as="geometry">
            <mxRectangle width="74" height="30" as="alternateBounds" />
          </mxGeometry>
        </mxCell>
        <mxCell id="yXeaVKiFBN0iXHVZ5jo_-20" value="insegnanti_id" style="shape=partialRectangle;html=1;whiteSpace=wrap;connectable=0;fillColor=none;top=0;left=0;bottom=0;right=0;align=left;spacingLeft=6;overflow=hidden;strokeColor=inherit;fontSize=16;" vertex="1" parent="yXeaVKiFBN0iXHVZ5jo_-18">
          <mxGeometry x="74" width="86" height="30" as="geometry">
            <mxRectangle width="86" height="30" as="alternateBounds" />
          </mxGeometry>
        </mxCell>
        <mxCell id="yXeaVKiFBN0iXHVZ5jo_-30" value="" style="endArrow=classic;html=1;rounded=0;exitX=0;exitY=0.5;exitDx=0;exitDy=0;entryX=1.018;entryY=-0.027;entryDx=0;entryDy=0;entryPerimeter=0;" edge="1" parent="1" source="-jynn4VAvdDgv4GhpCzi-59" target="yXeaVKiFBN0iXHVZ5jo_-18">
          <mxGeometry width="50" height="50" relative="1" as="geometry">
            <mxPoint x="1990" y="75" as="sourcePoint" />
            <mxPoint x="2000" y="55" as="targetPoint" />
          </mxGeometry>
        </mxCell>
        <mxCell id="yXeaVKiFBN0iXHVZ5jo_-31" value="" style="endArrow=classic;html=1;rounded=0;exitX=1;exitY=0.5;exitDx=0;exitDy=0;entryX=0.004;entryY=0.408;entryDx=0;entryDy=0;entryPerimeter=0;" edge="1" parent="1" source="-jynn4VAvdDgv4GhpCzi-47" target="yXeaVKiFBN0iXHVZ5jo_-17">
          <mxGeometry width="50" height="50" relative="1" as="geometry">
            <mxPoint x="1656" y="175" as="sourcePoint" />
            <mxPoint x="1550" y="164" as="targetPoint" />
          </mxGeometry>
        </mxCell>
        <mxCell id="yXeaVKiFBN0iXHVZ5jo_-32" value="" style="endArrow=classic;startArrow=classic;html=1;rounded=0;exitX=0.5;exitY=0;exitDx=0;exitDy=0;entryX=0.501;entryY=1.095;entryDx=0;entryDy=0;entryPerimeter=0;" edge="1" parent="1" source="yXeaVKiFBN0iXHVZ5jo_-33" target="-jynn4VAvdDgv4GhpCzi-188">
          <mxGeometry width="50" height="50" relative="1" as="geometry">
            <mxPoint x="1110" y="260" as="sourcePoint" />
            <mxPoint x="1160" y="210" as="targetPoint" />
            <Array as="points" />
          </mxGeometry>
        </mxCell>
        <mxCell id="yXeaVKiFBN0iXHVZ5jo_-39" value="One To Many" style="html=1;whiteSpace=wrap;aspect=fixed;shape=isoRectangle;" vertex="1" parent="1">
          <mxGeometry x="680" y="185" width="114" height="68.4" as="geometry" />
        </mxCell>
        <mxCell id="yXeaVKiFBN0iXHVZ5jo_-40" value="" style="endArrow=classic;html=1;rounded=0;entryX=0.5;entryY=0;entryDx=0;entryDy=0;exitX=0.47;exitY=1.003;exitDx=0;exitDy=0;exitPerimeter=0;" edge="1" parent="1" source="yXeaVKiFBN0iXHVZ5jo_-39" target="-jynn4VAvdDgv4GhpCzi-70">
          <mxGeometry width="50" height="50" relative="1" as="geometry">
            <mxPoint x="683" y="620" as="sourcePoint" />
            <mxPoint x="500" y="550" as="targetPoint" />
          </mxGeometry>
        </mxCell>
        <mxCell id="yXeaVKiFBN0iXHVZ5jo_-41" value="" style="endArrow=none;html=1;rounded=0;entryX=0.496;entryY=1.191;entryDx=0;entryDy=0;entryPerimeter=0;exitX=0.515;exitY=0.038;exitDx=0;exitDy=0;exitPerimeter=0;" edge="1" parent="1" source="yXeaVKiFBN0iXHVZ5jo_-39" target="-jynn4VAvdDgv4GhpCzi-182">
          <mxGeometry width="50" height="50" relative="1" as="geometry">
            <mxPoint x="930" y="280" as="sourcePoint" />
            <mxPoint x="980" y="230" as="targetPoint" />
          </mxGeometry>
        </mxCell>
        <mxCell id="yXeaVKiFBN0iXHVZ5jo_-46" value="esami_studenti" style="shape=table;startSize=30;container=1;collapsible=0;childLayout=tableLayout;fixedRows=1;rowLines=0;fontStyle=0;strokeColor=default;fontSize=16;" vertex="1" parent="1">
          <mxGeometry x="820" y="730" width="338" height="60" as="geometry" />
        </mxCell>
        <mxCell id="yXeaVKiFBN0iXHVZ5jo_-47" value="" style="shape=tableRow;horizontal=0;startSize=0;swimlaneHead=0;swimlaneBody=0;top=0;left=0;bottom=0;right=0;collapsible=0;dropTarget=0;fillColor=none;points=[[0,0.5],[1,0.5]];portConstraint=eastwest;strokeColor=inherit;fontSize=16;" vertex="1" parent="yXeaVKiFBN0iXHVZ5jo_-46">
          <mxGeometry y="30" width="338" height="30" as="geometry" />
        </mxCell>
        <mxCell id="yXeaVKiFBN0iXHVZ5jo_-48" value="studenti_id" style="shape=partialRectangle;html=1;whiteSpace=wrap;connectable=0;fillColor=none;top=0;left=0;bottom=0;right=0;overflow=hidden;pointerEvents=1;strokeColor=inherit;fontSize=16;" vertex="1" parent="yXeaVKiFBN0iXHVZ5jo_-47">
          <mxGeometry width="102" height="30" as="geometry">
            <mxRectangle width="102" height="30" as="alternateBounds" />
          </mxGeometry>
        </mxCell>
        <mxCell id="yXeaVKiFBN0iXHVZ5jo_-49" value="esami_id" style="shape=partialRectangle;html=1;whiteSpace=wrap;connectable=0;fillColor=none;top=0;left=0;bottom=0;right=0;align=left;spacingLeft=6;overflow=hidden;strokeColor=inherit;fontSize=16;" vertex="1" parent="yXeaVKiFBN0iXHVZ5jo_-47">
          <mxGeometry x="102" width="118" height="30" as="geometry">
            <mxRectangle width="118" height="30" as="alternateBounds" />
          </mxGeometry>
        </mxCell>
        <mxCell id="JRgTsZJqTHiiQuxszQhJ-1" value="voto" style="shape=partialRectangle;html=1;whiteSpace=wrap;connectable=0;fillColor=none;top=0;left=0;bottom=0;right=0;align=left;spacingLeft=6;overflow=hidden;strokeColor=inherit;fontSize=16;" vertex="1" parent="yXeaVKiFBN0iXHVZ5jo_-47">
          <mxGeometry x="220" width="118" height="30" as="geometry">
            <mxRectangle width="118" height="30" as="alternateBounds" />
          </mxGeometry>
        </mxCell>
        <mxCell id="yXeaVKiFBN0iXHVZ5jo_-50" value="" style="endArrow=classic;html=1;rounded=0;exitX=0;exitY=0.75;exitDx=0;exitDy=0;" edge="1" parent="1" source="-jynn4VAvdDgv4GhpCzi-142" target="yXeaVKiFBN0iXHVZ5jo_-46">
          <mxGeometry width="50" height="50" relative="1" as="geometry">
            <mxPoint x="840" y="790" as="sourcePoint" />
            <mxPoint x="1120" y="747" as="targetPoint" />
            <Array as="points" />
          </mxGeometry>
        </mxCell>
        <mxCell id="yXeaVKiFBN0iXHVZ5jo_-52" value="" style="endArrow=classic;html=1;rounded=0;exitX=0;exitY=0;exitDx=0;exitDy=0;entryX=1.007;entryY=0.051;entryDx=0;entryDy=0;entryPerimeter=0;" edge="1" parent="1" source="-jynn4VAvdDgv4GhpCzi-164" target="yXeaVKiFBN0iXHVZ5jo_-47">
          <mxGeometry width="50" height="50" relative="1" as="geometry">
            <mxPoint x="689" y="914" as="sourcePoint" />
            <mxPoint x="690" y="1030" as="targetPoint" />
          </mxGeometry>
        </mxCell>
        <mxCell id="yXeaVKiFBN0iXHVZ5jo_-138" value="" style="endArrow=classic;startArrow=classic;html=1;rounded=0;exitX=0.5;exitY=0;exitDx=0;exitDy=0;entryX=0.501;entryY=1.095;entryDx=0;entryDy=0;entryPerimeter=0;" edge="1" parent="1" source="-jynn4VAvdDgv4GhpCzi-139" target="yXeaVKiFBN0iXHVZ5jo_-33">
          <mxGeometry width="50" height="50" relative="1" as="geometry">
            <mxPoint x="1447" y="510" as="sourcePoint" />
            <mxPoint x="1451" y="173" as="targetPoint" />
            <Array as="points" />
          </mxGeometry>
        </mxCell>
        <mxCell id="yXeaVKiFBN0iXHVZ5jo_-33" value="One To One" style="verticalLabelPosition=bottom;verticalAlign=top;html=1;shape=mxgraph.flowchart.on-page_reference;" vertex="1" parent="1">
          <mxGeometry x="1420" y="295" width="60" height="60" as="geometry" />
        </mxCell>
        <mxCell id="yXeaVKiFBN0iXHVZ5jo_-145" value="" style="endArrow=classic;html=1;rounded=0;exitX=0.465;exitY=0.991;exitDx=0;exitDy=0;exitPerimeter=0;" edge="1" parent="1" source="yXeaVKiFBN0iXHVZ5jo_-110" target="yXeaVKiFBN0iXHVZ5jo_-46">
          <mxGeometry width="50" height="50" relative="1" as="geometry">
            <mxPoint x="736" y="647" as="sourcePoint" />
            <mxPoint x="959" y="750" as="targetPoint" />
          </mxGeometry>
        </mxCell>
      </root>
    </mxGraphModel>
  </diagram>
</mxfile>
